<svg width="3083" height="576" viewBox="0 0 3083 576" fill="none" xmlns="http://www.w3.org/2000/svg">
<path d="M0.3 453V438.15C9.3 438.15 16.2 435.75 21 430.95C25.8 426.15 29.7 419.55 32.7 411.15C36 402.75 39.75 393 43.95 381.9L136.65 129.45H147.45L247.8 385.5C250.2 391.8 252.9 399.9 255.9 409.8C258.9 419.7 260.1 428.1 259.5 435C264.6 434.7 269.7 434.4 274.8 434.1C279.9 433.8 285 433.5 290.1 433.2V453H187.05V438.15C198.45 437.85 205.95 435.3 209.55 430.5C213.15 425.7 214.5 420 213.6 413.4C212.7 406.8 211.2 400.8 209.1 395.4L193.35 353.1L76.35 355.8L60.6 403.95C58.5 411.15 56.55 416.85 54.75 421.05C53.25 425.25 51.45 429.9 49.35 435C55.35 434.7 61.2 434.4 66.9 434.1C72.9 433.8 78.75 433.5 84.45 433.2V453H0.3ZM83.1 336.45H187.05L155.1 250.5C151.8 241.2 148.35 232.05 144.75 223.05C141.45 213.75 138.15 204.45 134.85 195.15H133.95C130.95 203.55 127.8 211.95 124.5 220.35C121.5 228.75 118.35 237.3 115.05 246L83.1 336.45ZM304.489 453V439.5C313.789 439.5 320.239 437.25 323.839 432.75C327.439 427.95 329.539 421.5 330.139 413.4C330.739 405 331.039 395.4 331.039 384.6L331.489 282C331.489 277.2 331.489 272.4 331.489 267.6C331.789 262.8 332.389 257.85 333.289 252.75C327.889 253.05 322.489 253.35 317.089 253.65C311.989 253.95 306.739 254.25 301.339 254.55V235.65C314.539 235.65 324.439 235.05 331.039 233.85C337.939 232.65 343.039 231.15 346.339 229.35C349.639 227.55 352.339 225.6 354.439 223.5H367.489C367.789 225.6 367.939 228 367.939 230.7C368.239 233.4 368.539 236.4 368.839 239.7C369.139 243 369.289 246.75 369.289 250.95C375.889 245.25 383.089 240.15 390.889 235.65C398.989 231.15 407.389 227.55 416.089 224.85C425.089 222.15 433.939 220.8 442.639 220.8C468.739 220.8 487.789 229.05 499.789 245.55C511.789 261.75 517.789 287.1 517.789 321.6V405.3C517.789 411.3 517.639 416.7 517.339 421.5C517.339 426 516.889 430.8 515.989 435.9C520.789 435.6 525.439 435.45 529.939 435.45C534.739 435.15 539.539 434.85 544.339 434.55V453H452.539V439.5C461.839 439.5 468.289 437.25 471.889 432.75C475.489 427.95 477.589 421.5 478.189 413.4C478.789 405 479.089 395.4 479.089 384.6V321.6C478.789 295.8 474.439 276.3 466.039 263.1C457.939 249.9 445.039 243.45 427.339 243.75C416.539 244.05 405.889 246.9 395.389 252.3C385.189 257.7 376.639 264.6 369.739 273C370.039 275.4 370.189 278.1 370.189 281.1C370.189 284.1 370.189 287.25 370.189 290.55L369.739 405.3C369.739 411.3 369.589 416.7 369.289 421.5C369.289 426 368.839 430.8 367.939 435.9C372.739 435.6 377.389 435.45 381.889 435.45C386.689 435.15 391.489 434.85 396.289 434.55V453H304.489ZM577.829 453V439.5C587.129 439.5 593.579 437.25 597.179 432.75C600.779 427.95 602.879 421.5 603.479 413.4C604.079 405 604.379 395.4 604.379 384.6L604.829 282C604.829 277.2 604.829 272.4 604.829 267.6C605.129 262.8 605.729 257.85 606.629 252.75C601.229 253.05 595.829 253.35 590.429 253.65C585.329 253.95 580.079 254.25 574.679 254.55V235.65C587.879 235.65 597.779 235.05 604.379 233.85C611.279 232.65 616.379 231.15 619.679 229.35C622.979 227.55 625.679 225.6 627.779 223.5H640.829C641.129 225.6 641.279 228 641.279 230.7C641.579 233.4 641.879 236.4 642.179 239.7C642.479 243 642.629 246.75 642.629 250.95C649.229 245.25 656.429 240.15 664.229 235.65C672.329 231.15 680.729 227.55 689.429 224.85C698.429 222.15 707.279 220.8 715.979 220.8C742.079 220.8 761.129 229.05 773.129 245.55C785.129 261.75 791.129 287.1 791.129 321.6V405.3C791.129 411.3 790.979 416.7 790.679 421.5C790.679 426 790.229 430.8 789.329 435.9C794.129 435.6 798.779 435.45 803.279 435.45C808.079 435.15 812.879 434.85 817.679 434.55V453H725.879V439.5C735.179 439.5 741.629 437.25 745.229 432.75C748.829 427.95 750.929 421.5 751.529 413.4C752.129 405 752.429 395.4 752.429 384.6V321.6C752.129 295.8 747.779 276.3 739.379 263.1C731.279 249.9 718.379 243.45 700.679 243.75C689.879 244.05 679.229 246.9 668.729 252.3C658.529 257.7 649.979 264.6 643.079 273C643.379 275.4 643.529 278.1 643.529 281.1C643.529 284.1 643.529 287.25 643.529 290.55L643.079 405.3C643.079 411.3 642.929 416.7 642.629 421.5C642.629 426 642.179 430.8 641.279 435.9C646.079 435.6 650.729 435.45 655.229 435.45C660.029 435.15 664.829 434.85 669.629 434.55V453H577.829ZM987.969 453C987.069 447.9 986.469 443.4 986.169 439.5C985.869 435.6 985.419 431.55 984.819 427.35C974.619 437.55 963.519 445.65 951.519 451.65C939.819 457.35 927.369 460.2 914.169 460.2C891.369 460.2 874.419 455.1 863.319 444.9C852.219 434.4 846.669 421.65 846.669 406.65C846.669 392.85 850.869 381 859.269 371.1C867.969 360.9 879.069 352.65 892.569 346.35C906.369 339.75 921.219 334.95 937.119 331.95C953.319 328.65 968.919 327.15 983.919 327.45V299.55C983.919 289.05 983.019 279.15 981.219 269.85C979.419 260.55 975.519 252.9 969.519 246.9C963.519 240.9 953.919 237.75 940.719 237.45C932.019 237.15 923.019 238.8 913.719 242.4C904.719 246 898.119 252.15 893.919 260.85C896.319 263.25 897.819 266.1 898.419 269.4C899.319 272.4 899.769 275.25 899.769 277.95C899.769 281.55 898.269 285.75 895.269 290.55C892.269 295.05 887.019 297.15 879.519 296.85C873.219 296.85 868.419 294.75 865.119 290.55C861.819 286.05 860.169 280.8 860.169 274.8C860.169 264.6 863.919 255.45 871.419 247.35C879.219 239.25 889.869 232.8 903.369 228C916.869 223.2 932.169 220.8 949.269 220.8C974.469 220.8 993.069 227.55 1005.07 241.05C1017.07 254.25 1022.92 275.25 1022.62 304.05C1022.62 315.15 1022.62 326.4 1022.62 337.8C1022.62 348.9 1022.47 360.15 1022.17 371.55C1022.17 382.65 1022.17 393.9 1022.17 405.3C1022.17 410.1 1022.02 414.9 1021.72 419.7C1021.42 424.5 1020.97 429.9 1020.37 435.9C1025.77 435.6 1031.02 435.3 1036.12 435C1041.52 434.7 1046.92 434.4 1052.32 434.1V453H987.969ZM983.919 342.75C973.719 343.05 962.919 344.4 951.519 346.8C940.419 348.9 930.069 352.2 920.469 356.7C911.169 361.2 903.519 367.2 897.519 374.7C891.819 381.9 889.119 390.75 889.419 401.25C890.019 412.35 893.619 420.75 900.219 426.45C907.119 431.85 915.219 434.55 924.519 434.55C936.819 434.55 947.469 432.3 956.469 427.8C965.769 423 974.919 416.4 983.919 408C983.619 404.7 983.469 401.1 983.469 397.2C983.469 393.3 983.469 389.25 983.469 385.05C983.469 383.55 983.469 378.75 983.469 370.65C983.769 362.55 983.919 353.25 983.919 342.75Z" fill="#272424"/>
<path d="M1227.05 460.2C1212.05 460.2 1198.7 458.1 1187 453.9C1175.3 450 1165.7 445.5 1158.2 440.4L1160 456.15H1141.1L1138.4 378.75H1152.35C1152.95 391.05 1156.4 402.15 1162.7 412.05C1169 421.65 1177.1 429.15 1187 434.55C1196.9 439.95 1207.55 442.65 1218.95 442.65C1226.75 442.65 1234.4 441.45 1241.9 439.05C1249.4 436.35 1255.7 432.45 1260.8 427.35C1265.9 421.95 1268.45 415.2 1268.45 407.1C1268.45 398.7 1265.9 391.8 1260.8 386.4C1256 380.7 1249.55 375.75 1241.45 371.55C1233.35 367.35 1224.65 363.45 1215.35 359.85C1206.35 356.25 1197.35 352.5 1188.35 348.6C1179.35 344.7 1170.95 340.05 1163.15 334.65C1155.65 329.25 1149.65 322.65 1145.15 314.85C1140.65 307.05 1138.4 297.45 1138.4 286.05C1138.4 279.75 1139.6 272.85 1142 265.35C1144.4 257.85 1148.45 250.8 1154.15 244.2C1159.85 237.3 1167.65 231.75 1177.55 227.55C1187.45 223.05 1200.05 220.8 1215.35 220.8C1223.45 220.8 1232.45 222.15 1242.35 224.85C1252.25 227.55 1261.85 232.65 1271.15 240.15L1270.25 223.05H1289.15V301.8H1274.75C1274.15 291.3 1271.75 281.25 1267.55 271.65C1263.35 261.75 1257.2 253.65 1249.1 247.35C1241 240.75 1230.5 237.45 1217.6 237.45C1203.8 237.45 1193 240.9 1185.2 247.8C1177.4 254.7 1173.5 262.65 1173.5 271.65C1173.5 280.95 1176.35 288.75 1182.05 295.05C1188.05 301.05 1195.7 306.3 1205 310.8C1214.3 315.3 1224.2 319.65 1234.7 323.85C1246.1 328.65 1257.2 333.9 1268 339.6C1278.8 345.3 1287.65 352.5 1294.55 361.2C1301.45 369.6 1304.9 380.55 1304.9 394.05C1304.9 409.05 1301 421.5 1293.2 431.4C1285.7 441.3 1275.95 448.5 1263.95 453C1252.25 457.8 1239.95 460.2 1227.05 460.2ZM1466.26 453V438.15C1477.66 437.55 1485.46 435 1489.66 430.5C1493.86 425.7 1496.11 419.25 1496.41 411.15C1497.01 402.75 1497.31 393.3 1497.31 382.8V188.4C1497.31 182.4 1497.46 176.7 1497.76 171.3C1498.06 165.6 1498.36 160.5 1498.66 156C1493.26 156.3 1487.86 156.6 1482.46 156.9C1477.06 157.2 1471.66 157.5 1466.26 157.8V138H1567.51V152.85C1556.41 153.15 1548.61 155.7 1544.11 160.5C1539.91 165.3 1537.51 171.75 1536.91 179.85C1536.61 187.95 1536.46 197.4 1536.46 208.2V282H1570.21L1626.46 193.35C1630.36 187.35 1635.16 180.75 1640.86 173.55C1646.56 166.35 1652.41 160.35 1658.41 155.55C1653.91 155.85 1649.26 156 1644.46 156C1639.96 156 1635.46 156.15 1630.96 156.45V138H1727.71V152.85C1715.11 153.75 1703.86 155.85 1693.96 159.15C1684.06 162.45 1674.61 168.3 1665.61 176.7C1656.61 184.8 1647.01 197.1 1636.81 213.6L1592.71 283.8C1601.41 288.9 1608.46 294.9 1613.86 301.8C1619.26 308.4 1624.66 315.15 1630.06 322.05L1680.46 389.1C1691.86 404.1 1701.16 415.2 1708.36 422.4C1715.86 429.3 1722.46 433.65 1728.16 435.45C1734.16 437.25 1740.31 438.15 1746.61 438.15V453H1691.71C1688.71 453 1684.66 450.9 1679.56 446.7C1674.76 442.5 1669.51 437.1 1663.81 430.5C1658.11 423.6 1652.26 416.4 1646.26 408.9L1592.26 336C1586.56 328.5 1580.86 321.45 1575.16 314.85C1569.46 307.95 1563.91 302.85 1558.51 299.55L1536.46 300V399.45C1536.46 407.55 1536.31 414.6 1536.01 420.6C1536.01 426.3 1535.71 431.1 1535.11 435C1540.51 434.7 1545.91 434.4 1551.31 434.1C1556.71 433.8 1562.11 433.5 1567.51 433.2V453H1466.26ZM1768.49 439.5C1777.79 439.5 1784.24 437.25 1787.84 432.75C1791.44 427.95 1793.54 421.5 1794.14 413.4C1794.74 405 1795.04 395.4 1795.04 384.6V282C1795.04 277.2 1795.19 272.7 1795.49 268.5C1795.79 264 1796.24 258.75 1796.84 252.75C1791.44 253.05 1786.04 253.35 1780.64 253.65C1775.54 253.95 1770.29 254.25 1764.89 254.55V235.65C1778.09 235.65 1788.29 235.05 1795.49 233.85C1802.69 232.65 1808.09 231.15 1811.69 229.35C1815.59 227.55 1818.59 225.6 1820.69 223.5H1833.74V405.3C1833.74 411.3 1833.59 416.7 1833.29 421.5C1833.29 426 1832.84 430.8 1831.94 435.9C1836.74 435.6 1841.39 435.45 1845.89 435.45C1850.69 435.15 1855.49 434.85 1860.29 434.55V453H1768.49V439.5ZM1811.69 178.95C1805.39 178.95 1799.84 176.4 1795.04 171.3C1790.24 166.2 1787.84 159.9 1787.84 152.4C1787.84 144.9 1790.24 138.6 1795.04 133.5C1800.14 128.1 1805.84 125.4 1812.14 125.4C1819.04 125.4 1824.74 128.1 1829.24 133.5C1834.04 138.6 1836.44 144.9 1836.44 152.4C1836.44 159.9 1833.89 166.2 1828.79 171.3C1823.99 176.4 1818.29 178.95 1811.69 178.95ZM1986.69 460.2C1979.79 460.2 1972.74 459.15 1965.54 457.05C1958.34 455.25 1951.59 451.5 1945.29 445.8C1939.29 440.1 1934.49 431.85 1930.89 421.05C1927.29 409.95 1925.49 395.4 1925.49 377.4L1926.39 246.9L1891.74 247.35V228C1899.54 227.7 1907.49 224.85 1915.59 219.45C1923.69 213.75 1930.89 206.1 1937.19 196.5C1943.79 186.9 1948.29 176.4 1950.69 165H1965.99V228H2041.59V245.55L1965.99 246.45L1965.09 371.55C1965.09 385.05 1966.14 396.6 1968.24 406.2C1970.64 415.5 1974.39 422.55 1979.49 427.35C1984.59 432.15 1991.19 434.55 1999.29 434.55C2007.69 434.55 2015.49 432.15 2022.69 427.35C2030.19 422.55 2036.79 415.95 2042.49 407.55L2054.64 417.45C2048.04 427.35 2041.44 435.15 2034.84 440.85C2028.54 446.55 2022.39 450.75 2016.39 453.45C2010.39 456.45 2004.84 458.25 1999.74 458.85C1994.64 459.75 1990.29 460.2 1986.69 460.2ZM2185.91 460.2C2165.81 460.2 2147.21 455.7 2130.11 446.7C2113.31 437.4 2099.81 424.2 2089.61 407.1C2079.71 389.7 2074.76 368.85 2074.76 344.55C2074.76 328.95 2077.61 313.8 2083.31 299.1C2089.01 284.4 2096.96 271.2 2107.16 259.5C2117.66 247.5 2130.11 238.05 2144.51 231.15C2158.91 224.25 2174.81 220.8 2192.21 220.8C2209.01 220.8 2223.56 223.35 2235.86 228.45C2248.46 233.55 2258.21 240.3 2265.11 248.7C2272.01 257.1 2275.46 266.25 2275.46 276.15C2275.46 282.75 2273.66 288.45 2270.06 293.25C2266.46 297.75 2261.21 300 2254.31 300C2246.81 300.3 2241.41 298.05 2238.11 293.25C2235.11 288.15 2233.61 283.65 2233.61 279.75C2233.61 276.75 2234.06 273.75 2234.96 270.75C2235.86 267.45 2237.66 264.45 2240.36 261.75C2237.96 254.55 2233.76 249.3 2227.76 246C2221.76 242.4 2215.46 240.15 2208.86 239.25C2202.56 238.05 2197.31 237.45 2193.11 237.45C2172.71 237.45 2155.46 245.7 2141.36 262.2C2127.56 278.4 2120.66 302.1 2120.66 333.3C2120.66 353.4 2123.81 371.25 2130.11 386.85C2136.71 402.45 2145.86 414.75 2157.56 423.75C2169.26 432.45 2182.76 436.8 2198.06 436.8C2212.16 436.8 2225.66 433.05 2238.56 425.55C2251.46 418.05 2261.51 408.9 2268.71 398.1L2280.41 407.1C2272.61 419.7 2263.16 429.9 2252.06 437.7C2241.26 445.5 2230.01 451.2 2218.31 454.8C2206.91 458.4 2196.11 460.2 2185.91 460.2ZM2460.06 439.5C2469.36 439.5 2475.81 437.25 2479.41 432.75C2483.01 427.95 2485.11 421.5 2485.71 413.4C2486.31 405 2486.61 395.4 2486.61 384.6V321.6C2486.61 295.8 2482.41 276.45 2474.01 263.55C2465.91 250.65 2453.01 244.35 2435.31 244.65C2424.21 244.95 2413.26 247.65 2402.46 252.75C2391.96 257.85 2383.41 264.45 2376.81 272.55V405.3C2376.81 411.3 2376.66 416.7 2376.36 421.5C2376.06 426 2375.46 430.8 2374.56 435.9C2379.36 435.6 2384.01 435.45 2388.51 435.45C2393.31 435.15 2398.11 434.85 2402.91 434.55V453H2311.11V439.5C2320.41 439.5 2326.86 437.25 2330.46 432.75C2334.06 427.95 2336.16 421.5 2336.76 413.4C2337.66 405 2338.11 395.4 2338.11 384.6V171.75C2338.11 166.95 2338.11 162.45 2338.11 158.25C2338.41 153.75 2338.86 148.5 2339.46 142.5C2334.06 142.8 2328.66 143.1 2323.26 143.4C2318.16 143.7 2312.91 144 2307.51 144.3V125.4C2320.71 125.4 2330.91 124.8 2338.11 123.6C2345.61 122.4 2351.16 120.9 2354.76 119.1C2358.66 117.3 2361.66 115.35 2363.76 113.25H2376.81V250.5C2383.41 244.8 2390.76 239.85 2398.86 235.65C2407.26 231.15 2415.81 227.55 2424.51 224.85C2433.51 222.15 2442.21 220.8 2450.61 220.8C2476.71 220.8 2495.46 229.05 2506.86 245.55C2518.56 261.75 2524.56 287.1 2524.86 321.6L2525.31 405.3C2525.31 411.3 2525.16 416.7 2524.86 421.5C2524.86 426 2524.41 430.8 2523.51 435.9C2528.31 435.6 2532.96 435.45 2537.46 435.45C2542.26 435.15 2547.06 434.85 2551.86 434.55V453H2460.06V439.5ZM2693.9 460.2C2673.2 460.2 2654.45 455.4 2637.65 445.8C2621.15 435.9 2608.1 422.1 2598.5 404.4C2588.9 386.4 2584.1 365.25 2584.1 340.95C2584.1 319.95 2588.75 300.3 2598.05 282C2607.65 263.7 2621 249 2638.1 237.9C2655.2 226.5 2675 220.8 2697.5 220.8C2710.1 220.8 2721.8 222.9 2732.6 227.1C2743.7 231 2753.45 237.15 2761.85 245.55C2770.25 253.65 2776.85 264 2781.65 276.6C2786.45 288.9 2788.85 303.45 2788.85 320.25L2630.45 322.95C2630.45 345.75 2632.85 365.85 2637.65 383.25C2642.75 400.35 2650.85 413.7 2661.95 423.3C2673.05 432.6 2687.3 437.25 2704.7 437.25C2714 437.25 2723.45 435.6 2733.05 432.3C2742.95 429 2752.1 424.5 2760.5 418.8C2768.9 413.1 2775.65 406.8 2780.75 399.9L2791.55 408.9C2783.45 421.5 2773.7 431.55 2762.3 439.05C2750.9 446.55 2739.2 451.95 2727.2 455.25C2715.2 458.55 2704.1 460.2 2693.9 460.2ZM2631.8 304.05H2746.55C2746.55 293.25 2744.9 282.9 2741.6 273C2738.6 262.8 2733.5 254.55 2726.3 248.25C2719.1 241.65 2709.65 238.35 2697.95 238.35C2680.55 238.35 2666 243.6 2654.3 254.1C2642.9 264.3 2635.4 280.95 2631.8 304.05ZM2828.89 453V439.5C2838.19 439.5 2844.64 437.25 2848.24 432.75C2851.84 427.95 2853.94 421.5 2854.54 413.4C2855.14 405 2855.44 395.4 2855.44 384.6L2855.89 282C2855.89 277.2 2855.89 272.4 2855.89 267.6C2856.19 262.8 2856.79 257.85 2857.69 252.75C2852.29 253.05 2846.89 253.35 2841.49 253.65C2836.39 253.95 2831.14 254.25 2825.74 254.55V235.65C2838.94 235.65 2848.84 235.05 2855.44 233.85C2862.34 232.65 2867.44 231.15 2870.74 229.35C2874.04 227.55 2876.74 225.6 2878.84 223.5H2891.89C2892.19 225.6 2892.34 228 2892.34 230.7C2892.64 233.4 2892.94 236.4 2893.24 239.7C2893.54 243 2893.69 246.75 2893.69 250.95C2900.29 245.25 2907.49 240.15 2915.29 235.65C2923.39 231.15 2931.79 227.55 2940.49 224.85C2949.49 222.15 2958.34 220.8 2967.04 220.8C2993.14 220.8 3012.19 229.05 3024.19 245.55C3036.19 261.75 3042.19 287.1 3042.19 321.6V405.3C3042.19 411.3 3042.04 416.7 3041.74 421.5C3041.74 426 3041.29 430.8 3040.39 435.9C3045.19 435.6 3049.84 435.45 3054.34 435.45C3059.14 435.15 3063.94 434.85 3068.74 434.55V453H2976.94V439.5C2986.24 439.5 2992.69 437.25 2996.29 432.75C2999.89 427.95 3001.99 421.5 3002.59 413.4C3003.19 405 3003.49 395.4 3003.49 384.6V321.6C3003.19 295.8 2998.84 276.3 2990.44 263.1C2982.34 249.9 2969.44 243.45 2951.74 243.75C2940.94 244.05 2930.29 246.9 2919.79 252.3C2909.59 257.7 2901.04 264.6 2894.14 273C2894.44 275.4 2894.59 278.1 2894.59 281.1C2894.59 284.1 2894.59 287.25 2894.59 290.55L2894.14 405.3C2894.14 411.3 2893.99 416.7 2893.69 421.5C2893.69 426 2893.24 430.8 2892.34 435.9C2897.14 435.6 2901.79 435.45 2906.29 435.45C2911.09 435.15 2915.89 434.85 2920.69 434.55V453H2828.89Z" fill="#272424"/>
<circle cx="1034.41" cy="90.9056" r="6" transform="rotate(-60 1034.41 90.9056)" stroke="#4F622E" stroke-width="5"/>
<circle cx="1034.41" cy="90.9056" r="15" transform="rotate(-60 1034.41 90.9056)" stroke="#4F622E" stroke-width="5"/>
<mask id="path-5-inside-1_3_95" fill="white">
<path d="M1047.96 184.43C1045.83 184.984 1043.64 183.7 1043.09 181.562L1027.51 121.477C1025.57 113.992 1030.07 106.352 1037.55 104.412L1040.45 103.659C1047.94 101.718 1055.58 106.213 1057.52 113.697L1073.1 173.782C1073.65 175.921 1072.37 178.104 1070.23 178.658L1047.96 184.43Z"/>
</mask>
<path d="M1047.96 184.43C1045.83 184.984 1043.64 183.7 1043.09 181.562L1027.51 121.477C1025.57 113.992 1030.07 106.352 1037.55 104.412L1040.45 103.659C1047.94 101.718 1055.58 106.213 1057.52 113.697L1073.1 173.782C1073.65 175.921 1072.37 178.104 1070.23 178.658L1047.96 184.43Z" stroke="#4F622E" stroke-width="10" mask="url(#path-5-inside-1_3_95)"/>
<path fill-rule="evenodd" clip-rule="evenodd" d="M1053.54 185.674C1052.61 195.406 1051.19 205.493 1049.83 215.06C1049.17 219.77 1048.52 224.354 1047.96 228.707C1047.02 235.93 1046.32 242.553 1046.11 248.303C1045.89 254.12 1046.19 258.689 1047.06 261.949C1050.28 273.951 1055.54 282.941 1062.52 287.991C1068.4 292.244 1076.07 294.116 1086.14 291.883L1057.4 184.638L1053.54 185.674ZM1092.26 295.391C1065.09 304.136 1048.98 288.43 1042.23 263.243C1039.44 252.818 1042.05 234.336 1044.91 214.18C1046.42 203.523 1047.99 192.399 1048.87 181.75L1056.11 179.809L1060.94 178.514L1062.23 183.344L1092.26 295.391Z" fill="#4F622E"/>
<path fill-rule="evenodd" clip-rule="evenodd" d="M1066.1 182.308C1071.77 190.274 1078.05 198.296 1084 205.905C1086.93 209.65 1089.79 213.295 1092.45 216.785C1096.87 222.574 1100.79 227.959 1103.85 232.831C1106.95 237.759 1108.97 241.866 1109.85 245.126C1113.06 257.128 1113 267.545 1109.48 275.407C1106.52 282.029 1100.81 287.487 1090.97 290.589L1062.23 183.344L1066.1 182.308ZM1087.43 296.686C1115.33 290.676 1121.43 269.018 1114.68 243.832C1111.88 233.406 1100.38 218.708 1087.83 202.679C1081.19 194.204 1074.27 185.358 1068.18 176.573L1060.94 178.514L1056.11 179.809L1057.4 184.638L1087.43 296.686Z" fill="#4F622E"/>
<path fill-rule="evenodd" clip-rule="evenodd" d="M1059.04 195.118C1059.28 200.641 1059.46 206.155 1059.64 211.516C1059.79 216.021 1059.93 220.417 1060.1 224.619C1060.67 238.603 1061.52 250.21 1063.48 257.55C1066.79 269.898 1071.02 279.661 1075.82 285.59C1078.19 288.519 1080.49 290.259 1082.63 291.081C1083.36 291.362 1084.12 291.553 1084.9 291.637L1059.04 195.118ZM1088.16 296.488C1089.15 296.325 1090.15 296.059 1091.16 295.685L1061.14 183.637L1059.85 178.808L1055.02 180.102L1053.24 180.576C1053.95 190.803 1054.3 201.411 1054.64 211.573C1055.27 230.794 1055.86 248.418 1058.65 258.844C1064.63 281.14 1073.99 297.065 1086.25 296.678C1086.88 296.658 1087.52 296.596 1088.16 296.488Z" fill="#4F622E"/>
<path fill-rule="evenodd" clip-rule="evenodd" d="M1066.06 193.238C1068.62 198.139 1071.21 203.006 1073.74 207.737C1075.86 211.713 1077.93 215.594 1079.89 219.318C1086.39 231.713 1091.46 242.186 1093.43 249.526C1096.74 261.875 1097.95 272.446 1096.76 279.978C1096.18 283.699 1095.05 286.357 1093.61 288.139C1093.12 288.748 1092.56 289.29 1091.92 289.756L1066.06 193.238ZM1091.52 295.589C1090.59 295.938 1089.59 296.208 1088.52 296.392L1058.5 184.345L1057.21 179.515L1062.03 178.221L1063.81 177.747C1068.31 186.954 1073.31 196.317 1078.1 205.286C1087.16 222.251 1095.46 237.806 1098.26 248.232C1104.23 270.529 1104.08 289.003 1093.27 294.798C1092.72 295.095 1092.13 295.359 1091.52 295.589Z" fill="#4F622E"/>
</svg>
